{"title":"Agent 007-Veidi Lohutust 2008 DVDRIP EESTI SUB","uid":8893685,"size":1850481324,"categoryP":"video","categoryS":"movies","magnet":"?xt=urn:btih:8fe8e7d5dacc9d39ff705030c26d92df9dd957e3&amp;dn=Agent+007-Veidi+Lohutust+2008+DVDRIP+EESTI+SUB&amp;tr=udp%3A%2F%2Ftracker.openbittorrent.com%3A80&amp;tr=udp%3A%2F%2Fopen.demonii.com%3A1337&amp;tr=udp%3A%2F%2Ftracker.coppersurfer.tk%3A6969&amp;tr=udp%3A%2F%2Fexodus.desync.com%3A6969","seeders":0,"leechers":1,"uploader":"immri","files":1,"time":1378647176,"description":"Format                                   : AVI\nFormat/Info                              : Audio Video Interleave\nFormat profile                           : OpenDML\nFile size                                : 1.72 GiB\nDuration                                 : 1h 41mn\nOverall bit rate                         : 2 422 Kbps\nWriting application                      : Lavf52.13.0\n\nVideo\nID                                       : 0\nFormat                                   : MPEG-4 Visual\nFormat profile                           : Advanced Simple@L1\nFormat settings, BVOP                    : 2\nFormat settings, QPel                    : No\nFormat settings, GMC                     : No warppoints\nFormat settings, Matrix                  : Default (H.263)\nCodec ID                                 : DX50\nCodec ID/Hint                            : DivX 5\nDuration                                 : 1h 41mn\nBit rate                                 : 2 313 Kbps\nWidth                                    : 720 pixels\nHeight                                   : 576 pixels\nDisplay aspect ratio                     : 5:4\nFrame rate                               : 25.000 fps\nStandard                                 : PAL\nColor space                              : YUV\nChroma subsampling                       : 4:2:0\nBit depth                                : 8 bits\nScan type                                : Progressive\nCompression mode                         : Lossy\nBits/(Pixel*Frame)                       : 0.223\nStream size                              : 1.65 GiB (95%)\nWriting library                          : Lavc51.54.0\n\nAudio\nID                                       : 1\nFormat                                   : MPEG Audio\nFormat version                           : Version 1\nFormat profile                           : Layer 3\nMode                                     : Joint stereo\nMode extension                           : MS Stereo\nCodec ID                                 : 55\nCodec ID/Hint                            : MP3\nDuration                                 : 1h 41mn\nBit rate mode                            : Constant\nBit rate                                 : 96.0 Kbps\nChannel(s)                               : 2 channels\nSampling rate                            : 44.1 KHz\nCompression mode                         : Lossy\nStream size                              : 70.0 MiB (4%)\nAlignment                                : Aligned on interleaves\nInterleave, duration                     : 26 ms (0.65 video frame)\n\n","torrent":{"xt":"urn:btih:8fe8e7d5dacc9d39ff705030c26d92df9dd957e3","amp;dn":"Agent+007-Veidi+Lohutust+2008+DVDRIP+EESTI+SUB","amp;tr":["udp%3A%2F%2Ftracker.openbittorrent.com%3A80","udp%3A%2F%2Fopen.demonii.com%3A1337","udp%3A%2F%2Ftracker.coppersurfer.tk%3A6969","udp%3A%2F%2Fexodus.desync.com%3A6969"],"infoHash":"8fe8e7d5dacc9d39ff705030c26d92df9dd957e3","infoHashBuffer":{"type":"Buffer","data":[143,232,231,213,218,204,157,57,255,112,80,48,194,109,146,223,157,217,87,227]},"announce":[],"urlList":[]}}